<svg width="1061" height="598" viewBox="0 0 1061 598" fill="none" xmlns="http://www.w3.org/2000/svg">
<path d="M533.5 597.843C824.83 597.843 1061 582.208 1061 562.922C1061 543.635 824.83 528 533.5 528C242.17 528 6 543.635 6 562.922C6 582.208 242.17 597.843 533.5 597.843Z" fill="#F2F2F2"/>
<path d="M520.424 167.01C434.48 167.01 372.773 222.149 372.773 350.808C372.773 496.621 434.48 535.218 520.424 535.218C606.368 535.218 671.751 492.945 671.751 350.808C671.751 198.868 606.368 167.01 520.424 167.01ZM520.989 486.818C461.462 486.818 430.363 451.895 430.363 350.902C430.363 261.79 462.736 214.797 522.262 214.797C581.789 214.797 614.161 245.665 614.161 350.902C614.161 449.349 580.516 486.818 520.989 486.818Z" fill="#2F2E41"/>
<path d="M321.312 433.517H285.777V328.878C285.777 323.32 283.57 317.99 279.64 314.06C275.71 310.13 270.379 307.922 264.822 307.922H256.495C253.743 307.922 251.018 308.464 248.476 309.517C245.933 310.57 243.623 312.114 241.677 314.06C239.731 316.005 238.188 318.316 237.134 320.858C236.081 323.401 235.539 326.126 235.539 328.878V433.517H135.309C133.247 433.517 131.22 432.984 129.425 431.97C127.63 430.956 126.127 429.495 125.063 427.729C123.998 425.963 123.409 423.951 123.351 421.89C123.293 419.829 123.768 417.788 124.732 415.965L230.814 215.185C232.137 212.681 232.938 209.936 233.17 207.115C233.403 204.293 233.061 201.454 232.166 198.768C231.27 196.082 229.84 193.605 227.961 191.488C226.082 189.37 223.794 187.655 221.234 186.446L214.971 183.489C210.109 181.192 204.549 180.853 199.444 182.541C194.338 184.23 190.077 187.816 187.542 192.559L58.1605 434.591C55.9573 438.713 54.8047 443.314 54.8047 447.987C54.8047 451.719 55.5397 455.414 56.9677 458.861C58.3957 462.309 60.4888 465.442 63.1275 468.08C65.7661 470.719 68.8987 472.812 72.3463 474.24C75.7938 475.668 79.4889 476.403 83.2205 476.403H235.539V542.57C235.539 545.869 236.189 549.135 237.451 552.183C238.714 555.231 240.564 558 242.896 560.332C245.229 562.665 247.998 564.515 251.046 565.777C254.093 567.04 257.36 567.689 260.658 567.689C263.957 567.689 267.223 567.04 270.271 565.777C273.319 564.515 276.088 562.665 278.42 560.332C280.753 558 282.603 555.231 283.865 552.183C285.128 549.135 285.777 545.869 285.777 542.57V476.403H321.312C326.999 476.403 332.453 474.144 336.474 470.123C340.496 466.101 342.755 460.647 342.755 454.96C342.755 449.273 340.496 443.819 336.474 439.797C332.453 435.776 326.999 433.517 321.312 433.517Z" fill="#634C9F"/>
<path d="M979.308 433.517H943.773V328.878C943.773 323.32 941.566 317.99 937.636 314.06C933.706 310.13 928.375 307.922 922.818 307.922H914.491C911.739 307.922 909.014 308.464 906.472 309.517C903.929 310.57 901.619 312.114 899.673 314.06C897.727 316.005 896.184 318.316 895.131 320.858C894.077 323.401 893.535 326.126 893.535 328.878V433.517H793.305C791.243 433.517 789.216 432.984 787.421 431.97C785.626 430.956 784.123 429.495 783.059 427.729C781.995 425.963 781.405 423.951 781.347 421.89C781.289 419.829 781.764 417.788 782.728 415.965L888.81 215.185C890.133 212.681 890.934 209.936 891.167 207.115C891.399 204.293 891.057 201.454 890.162 198.768C889.266 196.082 887.836 193.605 885.957 191.488C884.078 189.37 881.79 187.655 879.23 186.446L872.967 183.489C868.105 181.192 862.546 180.853 857.44 182.541C852.334 184.23 848.073 187.816 845.538 192.559L716.157 434.591C713.953 438.713 712.801 443.314 712.801 447.987C712.801 455.524 715.795 462.751 721.124 468.08C726.453 473.409 733.68 476.403 741.217 476.403H893.535V542.57C893.535 549.232 896.182 555.621 900.893 560.332C905.603 565.043 911.992 567.689 918.654 567.689C925.316 567.689 931.705 565.043 936.416 560.332C941.127 555.621 943.773 549.232 943.773 542.57V476.403H979.308C984.995 476.403 990.449 474.144 994.47 470.123C998.492 466.101 1000.75 460.647 1000.75 454.96C1000.75 449.273 998.492 443.819 994.47 439.797C990.449 435.776 984.995 433.517 979.308 433.517Z" fill="#634C9F"/>
<path d="M327.507 433.035H291.973V328.396C291.973 325.644 291.431 322.919 290.378 320.376C289.324 317.834 287.781 315.524 285.835 313.578C283.889 311.632 281.579 310.088 279.036 309.035C276.494 307.982 273.769 307.44 271.017 307.44H262.69C257.133 307.44 251.802 309.648 247.872 313.578C243.942 317.508 241.735 322.838 241.735 328.396V433.035H141.505C139.443 433.035 137.416 432.502 135.62 431.488C133.825 430.474 132.322 429.013 131.258 427.247C130.194 425.481 129.604 423.469 129.546 421.408C129.488 419.347 129.964 417.306 130.927 415.483L237.009 214.703C238.332 212.199 239.134 209.454 239.366 206.633C239.598 203.811 239.256 200.972 238.361 198.286C237.466 195.6 236.035 193.123 234.156 191.006C232.278 188.888 229.989 187.173 227.429 185.964L221.167 183.007C216.304 180.71 210.745 180.371 205.639 182.06C200.534 183.748 196.272 187.334 193.737 192.077L64.3558 434.109C62.1527 438.231 61 442.832 61 447.505C61 455.042 63.9938 462.269 69.3228 467.598C74.6518 472.927 81.8795 475.921 89.4158 475.921H241.735V542.088C241.735 545.387 242.384 548.653 243.647 551.701C244.909 554.749 246.759 557.518 249.092 559.85C251.424 562.183 254.193 564.033 257.241 565.295C260.289 566.558 263.555 567.207 266.854 567.207C273.516 567.207 279.905 564.561 284.615 559.85C289.326 555.139 291.973 548.75 291.973 542.088V475.921H327.507C330.323 475.921 333.111 475.366 335.713 474.289C338.314 473.211 340.678 471.632 342.669 469.641C344.661 467.649 346.24 465.286 347.318 462.684C348.395 460.082 348.95 457.294 348.95 454.478C348.95 451.662 348.395 448.874 347.318 446.272C346.24 443.671 344.661 441.307 342.67 439.316C340.678 437.324 338.314 435.745 335.713 434.667C333.111 433.59 330.323 433.035 327.507 433.035Z" stroke="#3F3D56" stroke-miterlimit="10"/>
<path d="M986.507 429.035H950.973V324.396C950.973 321.644 950.431 318.919 949.378 316.376C948.324 313.834 946.781 311.524 944.835 309.578C942.889 307.632 940.579 306.088 938.036 305.035C935.494 303.982 932.769 303.44 930.017 303.44H921.69C916.133 303.44 910.802 305.648 906.872 309.578C902.942 313.508 900.735 318.838 900.735 324.396V429.035H800.505C798.443 429.035 796.416 428.502 794.62 427.488C792.825 426.474 791.322 425.013 790.258 423.247C789.194 421.481 788.604 419.469 788.546 417.408C788.488 415.347 788.964 413.306 789.927 411.483L896.009 210.703C897.332 208.199 898.134 205.454 898.366 202.633C898.598 199.811 898.256 196.972 897.361 194.286C896.466 191.6 895.035 189.123 893.156 187.006C891.278 184.888 888.989 183.173 886.429 181.964L880.167 179.007C875.304 176.71 869.745 176.371 864.639 178.06C859.534 179.748 855.272 183.334 852.737 188.077L723.356 430.109C721.153 434.231 720 438.832 720 443.505C720 451.042 722.994 458.269 728.323 463.598C733.652 468.927 740.879 471.921 748.416 471.921H900.735V538.088C900.735 541.387 901.384 544.653 902.647 547.701C903.909 550.749 905.759 553.518 908.092 555.85C910.424 558.183 913.193 560.033 916.241 561.295C919.289 562.558 922.555 563.207 925.854 563.207C932.516 563.207 938.905 560.561 943.615 555.85C948.326 551.139 950.973 544.75 950.973 538.088V471.921H986.507C989.323 471.921 992.111 471.366 994.713 470.289C997.314 469.211 999.678 467.632 1001.67 465.641C1003.66 463.649 1005.24 461.286 1006.32 458.684C1007.4 456.082 1007.95 453.294 1007.95 450.478C1007.95 447.662 1007.4 444.874 1006.32 442.272C1005.24 439.671 1003.66 437.307 1001.67 435.316C999.678 433.324 997.314 431.745 994.713 430.667C992.111 429.59 989.323 429.035 986.507 429.035Z" stroke="#3F3D56" stroke-miterlimit="10"/>
<path d="M540.03 155.982C454.086 155.982 392.379 211.121 392.379 339.78C392.379 485.593 454.086 524.19 540.03 524.19C625.974 524.19 691.357 481.917 691.357 339.78C691.357 187.84 625.974 155.982 540.03 155.982ZM540.595 475.79C481.068 475.79 449.969 440.867 449.969 339.874C449.969 250.762 482.341 203.769 541.868 203.769C601.395 203.769 633.767 234.637 633.767 339.874C633.767 438.321 600.122 475.79 540.595 475.79Z" stroke="#3F3D56" stroke-miterlimit="10"/>
<path d="M471.139 31.1515C478.265 31.1515 484.041 25.3754 484.041 18.2503C484.041 11.1252 478.265 5.34912 471.139 5.34912C464.014 5.34912 458.238 11.1252 458.238 18.2503C458.238 25.3754 464.014 31.1515 471.139 31.1515Z" fill="#2F2E41"/>
<path d="M502.608 93.7695C522.593 93.7695 538.794 72.7785 538.794 46.8848C538.794 20.991 522.593 0 502.608 0C482.623 0 466.422 20.991 466.422 46.8848C466.422 72.7785 482.623 93.7695 502.608 93.7695Z" fill="#2F2E41"/>
<path opacity="0.1" d="M502.608 79.6095C484.48 79.6095 469.467 62.339 466.832 39.8047C466.558 42.1547 466.421 44.5187 466.422 46.8846C466.422 72.7783 482.623 93.7694 502.608 93.7694C522.593 93.7694 538.794 72.7784 538.794 46.8846C538.795 44.5187 538.658 42.1547 538.384 39.8047C535.749 62.339 520.736 79.6095 502.608 79.6095Z" fill="black"/>
<path d="M576.241 184.189C575.464 187.382 572.113 189.94 568.402 191.727C560.6 195.484 550.977 196.605 541.642 196.981C539.261 197.126 536.872 197.082 534.498 196.849C529.897 196.404 525.581 194.42 522.247 191.218C522.009 191.063 521.815 190.85 521.681 190.599C521.548 190.348 521.48 190.068 521.485 189.784C521.489 189.5 521.565 189.221 521.706 188.975C521.847 188.728 522.049 188.521 522.291 188.374C527.261 182.915 535.553 179.568 543.907 177.158C550.242 175.33 561.289 170.597 568.197 171.236C574.889 171.854 577.222 180.157 576.241 184.189Z" fill="#3F3D56"/>
<path opacity="0.1" d="M576.241 184.189C575.464 187.382 572.113 189.94 568.402 191.727C560.6 195.484 550.977 196.605 541.642 196.981C539.261 197.126 536.872 197.082 534.498 196.849C529.897 196.404 525.581 194.42 522.247 191.218C522.009 191.063 521.815 190.85 521.681 190.599C521.548 190.348 521.48 190.068 521.485 189.784C521.489 189.5 521.565 189.221 521.706 188.975C521.847 188.728 522.049 188.521 522.291 188.374C527.261 182.915 535.553 179.568 543.907 177.158C550.242 175.33 561.289 170.597 568.197 171.236C574.889 171.854 577.222 180.157 576.241 184.189Z" fill="black"/>
<path d="M477.043 160.322C474.661 164.989 474.23 170.411 475.844 175.396C477.486 180.344 480.558 184.693 484.673 187.893C494.768 195.985 508.661 197.098 521.598 196.986C532.936 196.887 544.258 196.111 555.503 194.662C559.272 194.328 562.975 193.468 566.505 192.108C570.727 190.281 574.438 186.93 575.941 182.582C577.444 178.234 576.377 172.909 572.807 170.008C569.67 167.458 565.344 167.107 561.309 166.865L538.221 165.477C540.502 163.169 543.54 161.863 546.317 160.185C550.003 157.959 552.451 154.221 555.13 150.85C559.259 145.916 563.751 141.298 568.569 137.033C569.32 141.344 572.047 144.883 575.256 147.857C578.466 150.832 582.165 153.226 585.5 156.058C593.579 162.916 599.396 172.224 607.892 178.558C613.737 177.022 619.201 174.294 623.941 170.546L620.639 164.564C620.364 163.949 619.935 163.414 619.394 163.012C618.46 162.437 617.255 162.733 616.169 162.57C613.269 162.135 612.002 158.786 610.863 156.083C607.738 148.661 601.755 142.903 596.646 136.679C592.874 132.085 589.528 127.157 586.65 121.956C584.933 118.854 583.362 115.625 581.032 112.953C578.703 110.281 575.439 108.18 571.894 108.172C568.762 108.166 565.873 109.756 563.18 111.355C554.977 116.228 547.085 121.604 539.549 127.454C535.606 130.516 531.686 133.751 527.06 135.628C525.113 136.419 523.06 136.959 521.191 137.921C517.918 139.605 515.434 142.455 512.76 144.985C503.222 154.008 490.164 159.854 477.043 160.322Z" fill="#3F3D56"/>
<path d="M525.318 96.0978C525.211 98.856 524.624 101.574 523.585 104.131C523.057 105.406 522.273 106.559 521.281 107.518C520.289 108.477 519.109 109.221 517.817 109.704C515.981 110.196 514.057 110.258 512.194 109.886C510.569 109.717 509.003 109.183 507.612 108.326C505.447 106.837 504.368 104.182 503.975 101.582C503.581 98.9864 503.758 96.3338 503.506 93.719C503.261 91.6069 502.859 89.516 502.304 87.4635C502.134 86.7807 501.961 86.101 501.791 85.4214C501.624 84.7417 501.461 84.062 501.31 83.3823C501.171 82.7436 501.042 82.1017 500.932 81.4566C500.841 80.9122 500.759 80.3647 500.699 79.8141C500.644 78.1816 500.372 76.5637 499.89 75.0029C499.438 73.9906 498.873 73.0331 498.204 72.1489C497.918 71.7398 497.641 71.3308 497.386 70.906C496.649 69.802 496.306 68.4814 496.413 67.1583C496.444 66.9538 496.493 66.7526 496.561 66.5573C496.586 66.4818 496.615 66.4063 496.646 66.3339C496.929 66.2571 497.189 66.1123 497.404 65.9121C497.618 65.7119 497.781 65.4625 497.877 65.1853C497.985 64.5901 497.934 63.9767 497.729 63.4075C497.494 62.6121 497.172 61.845 496.769 61.1199C496.505 60.6416 495.608 59.7794 495.602 59.2319C495.589 58.1306 497.741 57.2432 498.613 56.809C501.274 55.4767 504.24 54.8751 507.21 55.0658C509.113 55.1948 511.177 55.78 512.228 57.3754C513.172 58.8134 513.046 60.6762 513.449 62.3471C513.492 62.5899 513.595 62.8182 513.748 63.011C513.954 63.1981 514.212 63.3168 514.488 63.3508C514.954 63.4435 515.432 63.4627 515.904 63.4075H515.907C516.032 63.3976 516.156 63.3797 516.278 63.354C517.013 63.2183 517.708 62.9182 518.311 62.4761C518.701 62.3722 519.094 62.2873 519.491 62.2212C519.507 62.2196 519.523 62.2164 519.538 62.2117C521.115 67.1866 521.319 72.5201 522.609 77.5862C523.248 80.1066 524.164 82.5956 524.293 85.1884C524.302 85.3017 524.305 85.4181 524.308 85.5345C524.327 86.3684 524.261 87.2085 524.296 88.0393C524.308 88.4133 524.35 88.7858 524.422 89.1532C524.563 89.744 524.738 90.326 524.947 90.8964L524.957 90.9247C525.016 91.1072 525.073 91.2929 525.12 91.4785C525.155 91.6138 525.186 91.746 525.211 91.8813L525.215 91.8907C525.448 93.2812 525.482 94.6976 525.318 96.0978Z" fill="#FBBEBE"/>
<path d="M503.237 63.5619C513.49 63.5619 521.802 55.25 521.802 44.9968C521.802 34.7435 513.49 26.4316 503.237 26.4316C492.984 26.4316 484.672 34.7435 484.672 44.9968C484.672 55.25 492.984 63.5619 503.237 63.5619Z" fill="#FBBEBE"/>
<path d="M621.102 146.148C620.564 141.083 618.764 136.234 615.866 132.045C616.347 134.909 616.83 137.771 617.313 140.632C616.712 140.806 616.074 140.801 615.476 140.617C614.877 140.433 614.346 140.079 613.947 139.597C613.165 138.621 612.567 137.511 612.181 136.321C610.072 131.085 607.314 126.135 603.972 121.586C592.153 120.601 580.469 115.702 570.076 109.99C559.68 104.282 549.95 97.4386 539.692 91.4883C537.914 90.4133 536.061 89.4669 534.148 88.6563C530.938 87.3693 527.336 86.7023 524.293 85.1887C524.088 85.088 523.884 84.9811 523.682 84.8709C522.995 84.4971 522.344 84.0599 521.738 83.5651C521.41 83.299 521.099 83.0132 520.806 82.7092C519.288 80.943 518.084 78.9293 517.247 76.7558C515.614 73.1435 515.032 68.7854 513.402 65.173C514.151 64.4729 514.993 63.8789 515.904 63.4078H515.907C516.039 63.3385 516.171 63.2725 516.307 63.2095C516.952 62.9058 517.622 62.6604 518.311 62.4764C518.701 62.3725 519.095 62.2876 519.491 62.2215C519.507 62.2199 519.523 62.2167 519.538 62.212C521.377 61.9125 523.261 62.0615 525.029 62.6463C527.616 63.521 529.796 65.2674 531.971 66.9194C535.503 69.408 538.891 72.0953 542.118 74.9685C543.912 76.6865 545.548 78.5745 547.477 80.1352C549.08 81.3723 550.77 82.4923 552.534 83.4864C562.971 89.7041 573.41 95.9208 583.849 102.136C587.383 104.242 590.92 106.347 594.375 108.574C599.623 111.96 604.683 115.629 609.74 119.295C612.719 121.454 615.698 123.613 618.676 125.774C619.653 126.397 620.511 127.19 621.209 128.115C621.826 129.165 622.209 130.336 622.332 131.548C623.08 136.444 622.658 141.447 621.102 146.148Z" fill="#FBBEBE"/>
<path d="M529.923 110.06C528.671 115.677 522.994 119.072 520.027 124.006C516.339 130.129 517.843 137.247 519.228 144.261C516.698 146.441 514.167 148.622 511.635 150.802C510.238 152.001 508.841 153.206 507.337 154.267C505.144 155.736 502.852 157.053 500.477 158.206C498.237 159.358 495.996 160.511 493.756 161.665C491.673 162.836 489.466 163.771 487.176 164.452C482.762 165.585 478.073 164.792 473.706 163.48C473.191 163.345 472.695 163.143 472.233 162.879C471.961 162.717 471.723 162.502 471.535 162.247C471.104 161.475 470.947 160.58 471.091 159.707C471.534 152.357 473.331 145.16 475.122 138.018C476.079 133.732 477.365 129.528 478.97 125.441C480.544 121.939 482.353 118.547 484.385 115.29C486.628 111.191 489.285 107.333 492.315 103.776C493.79 102.407 495.031 100.806 495.99 99.0372C497.107 96.4884 496.676 93.5652 496.903 90.7899C497.076 88.7047 497.629 86.6689 498.536 84.783V84.7798C499.02 83.764 499.604 82.7985 500.279 81.8975C500.584 82.6086 500.889 83.3187 501.195 84.0278C501.396 84.4935 501.595 84.9582 501.792 85.4218C502.05 86.0196 502.306 86.6154 502.56 87.2091C503.293 88.9145 504.026 90.619 504.757 92.3223C505.547 94.4678 506.672 96.4741 508.092 98.2663C508.741 99.1841 509.617 99.9178 510.634 100.396C511.651 100.874 512.775 101.08 513.895 100.994C515.016 100.908 516.095 100.533 517.028 99.9058C517.96 99.2782 518.714 98.4195 519.215 97.4136C520.273 95.5359 521.039 93.5083 521.487 91.4004C522.109 88.8337 522.194 86.1665 521.739 83.5653C520.981 78.5558 518.85 73.4394 517.302 68.7856C516.672 67.2338 516.307 65.5872 516.223 63.9146C516.226 63.7266 516.245 63.5392 516.279 63.3545C516.289 63.3073 516.298 63.2569 516.308 63.2097C516.953 62.906 517.624 62.6606 518.312 62.4766C518.702 62.3727 519.096 62.2878 519.492 62.2217C520.855 69.5974 522.219 76.9731 523.586 84.3488C523.618 84.5218 523.652 84.6949 523.684 84.8711C523.879 85.9284 524.077 86.9857 524.297 88.0398C524.495 88.9963 524.709 89.9498 524.949 90.8969L524.958 90.9252C525.04 91.2462 525.125 91.564 525.213 91.8818L525.216 91.8912C525.458 92.7597 525.729 93.6219 526.034 94.4715C527.884 99.591 531.11 104.745 529.923 110.06Z" fill="#634C9F"/>
<path d="M605.267 188.993C605.209 190.075 605.419 191.154 605.877 192.136C607.039 194.26 609.827 194.742 612.24 194.941C626.332 196.099 640.51 195.667 654.505 193.653C655.265 193.601 656.001 193.372 656.657 192.985C658.647 191.59 657.42 188.19 655.247 187.102C653.074 186.013 650.496 186.276 648.112 185.804C645.743 185.208 643.488 184.23 641.434 182.908C636.599 180.13 631.835 177.234 627.141 174.22C624.346 172.426 621.048 170.51 617.901 171.574C609.376 174.458 605.211 179.796 605.267 188.993Z" fill="#3F3D56"/>
<path d="M501.384 82.9891V82.9923C501.362 83.1244 501.34 83.2534 501.312 83.3825C501.277 83.5965 501.236 83.8135 501.195 84.0275C500.805 86.0256 500.327 88.0142 499.776 89.9903C498.266 95.4497 496.243 100.821 494.235 106.114C488.848 120.305 483.46 134.497 478.071 148.691C476.711 152.265 475.355 155.843 473.81 159.345C473.294 160.513 472.762 161.689 472.234 162.879C470.339 167.136 468.521 171.532 467.917 176.063C467.353 179.045 467.288 182.1 467.725 185.103C468.329 188.074 470.132 190.975 472.954 192.073C474.333 192.611 476.305 193.332 475.928 194.764C475.723 195.55 474.83 195.934 474.027 196.066C472.968 196.235 471.884 196.169 470.853 195.872C469.822 195.575 468.869 195.055 468.061 194.348C466.554 193.011 465.396 190.931 463.392 190.708C462.004 190.557 460.726 191.387 459.455 191.969C454.27 194.339 448.228 192.681 442.781 190.997C443.209 188.791 445.424 187.338 447.624 186.897C449.823 186.453 452.098 186.768 454.342 186.708C455.06 186.747 455.773 186.563 456.384 186.183C456.932 185.68 457.315 185.025 457.485 184.301C458.931 180.019 460.005 175.621 460.698 171.154C461.422 166.488 461.724 161.749 462.756 157.139C463.558 153.543 464.798 150.06 465.862 146.529C467.918 139.26 469.607 131.892 470.922 124.452C471.586 121.361 472.062 118.233 472.347 115.085C472.526 112.473 472.441 109.849 472.693 107.246C473.116 103.861 473.822 100.517 474.804 97.2496C475.767 93.6845 476.729 90.1215 477.69 86.5605C479.115 81.2899 480.645 75.8148 484.257 71.7179C485.512 70.2756 487.049 69.1063 488.774 68.2825C490.499 67.4587 492.375 66.9979 494.285 66.9287C495.002 66.9278 495.716 67.0049 496.415 67.1584C496.532 67.1867 496.648 67.215 496.765 67.2465C497.527 67.4458 498.259 67.7487 498.939 68.1465C500.053 67.4385 500.619 67.687 501.359 68.7789C502.007 69.9345 502.313 71.2508 502.24 72.5738C502.302 76.0654 502.016 79.5545 501.384 82.9891Z" fill="#FBBEBE"/>
<path d="M502.608 87.1618L502.561 87.209L502.306 87.4639L499.776 89.9906L498.536 84.7829L494.285 66.9289C495.001 66.9281 495.716 67.0051 496.415 67.1586C496.446 66.9541 496.495 66.7529 496.563 66.5576L496.765 67.2467L498.206 72.1492L500.934 81.4569L501.384 82.9893V82.9925L502.608 87.1618Z" fill="#634C9F"/>
<path d="M518.661 30.2027C518.659 31.8559 518.331 33.4925 517.696 35.0189C517.062 36.5453 516.132 37.9316 514.961 39.0985C514.537 39.5233 514.082 39.9164 513.601 40.2749C511.43 41.9118 508.785 42.7978 506.065 42.799H490.969C487.633 42.7939 484.436 41.4651 482.079 39.1046C479.722 36.744 478.398 33.5446 478.398 30.2088C478.398 26.8731 479.722 23.6737 482.079 21.3131C484.436 18.9525 487.633 17.6238 490.969 17.6187H506.065C509.401 17.6273 512.598 18.9556 514.958 21.3133C517.318 23.671 518.65 26.8668 518.661 30.2027Z" fill="#2F2E41"/>
<path d="M532.815 31.1515C539.94 31.1515 545.716 25.3754 545.716 18.2503C545.716 11.1252 539.94 5.34912 532.815 5.34912C525.69 5.34912 519.914 11.1252 519.914 18.2503C519.914 25.3754 525.69 31.1515 532.815 31.1515Z" fill="#2F2E41"/>
<path opacity="0.1" d="M532.499 5.34912C532.341 5.34912 532.184 5.3554 532.027 5.36105C535.365 5.48238 538.525 6.89347 540.843 9.29741C543.161 11.7014 544.456 14.9107 544.456 18.2503C544.456 21.5899 543.161 24.7992 540.843 27.2032C538.525 29.6071 535.365 31.0182 532.027 31.1395C532.184 31.1452 532.341 31.1515 532.499 31.1515C535.921 31.1515 539.202 29.7922 541.622 27.3728C544.041 24.9534 545.401 21.6719 545.401 18.2503C545.401 14.8287 544.041 11.5472 541.622 9.12779C539.202 6.70835 535.921 5.34912 532.499 5.34912Z" fill="black"/>
<path opacity="0.1" d="M471.14 5.34912C471.298 5.34912 471.455 5.3554 471.612 5.36105C468.274 5.48238 465.114 6.89347 462.796 9.29741C460.478 11.7014 459.183 14.9107 459.183 18.2503C459.183 21.5899 460.478 24.7992 462.796 27.2032C465.114 29.6071 468.274 31.0182 471.612 31.1395C471.455 31.1452 471.298 31.1515 471.14 31.1515C467.72 31.1485 464.442 29.7879 462.025 27.3688C459.608 24.9497 458.25 21.6699 458.25 18.2503C458.25 14.8307 459.608 11.5509 462.025 9.13181C464.442 6.71269 467.72 5.35213 471.14 5.34912Z" fill="black"/>
<path opacity="0.1" d="M513.601 40.2749C511.43 41.9118 508.785 42.7978 506.065 42.7991H490.969C488.25 42.7978 485.605 41.9118 483.434 40.2749H513.601Z" fill="black"/>
<path d="M611.086 133.756C611.086 133.756 614.338 143.127 617.315 140.632L614.942 128.382L611.086 133.756Z" fill="#FBBEBE"/>
<path d="M9.00672 470.249C10.997 470.972 13.1282 471.224 15.2322 470.983C17.3362 470.742 19.3556 470.016 21.1312 468.862C22.9068 467.708 24.39 466.157 25.464 464.332C26.538 462.507 27.1734 460.457 27.3201 458.345C27.4668 456.232 27.1208 454.114 26.3094 452.158C25.498 450.202 24.2433 448.461 22.6442 447.072C21.0452 445.684 19.1455 444.686 17.0949 444.157C15.0444 443.628 12.8989 443.582 10.8277 444.024L11.17 451.062L7.84012 445.03C4.57204 446.566 2.04732 449.336 0.820762 452.732C0.38516 453.922 0.120346 455.167 0.0342206 456.431C-0.175962 459.396 0.586246 462.35 2.20534 464.843C3.82443 467.337 6.21217 469.234 9.00672 470.249Z" fill="#57B894"/>
<path d="M25.4823 551.879C24.3068 545.894 29.4003 540.587 34.4314 537.138C39.4626 533.689 45.3412 530.3 47.0578 524.446C49.525 516.034 42.1762 508.33 36.4564 501.686C32.2129 496.756 28.5687 491.34 25.6001 485.552C24.3095 483.278 23.4305 480.794 23.0035 478.215C22.5525 474.486 23.7505 470.776 24.9574 467.219C28.978 455.37 33.2767 443.62 37.8536 431.97" stroke="#3F3D56" stroke-miterlimit="10"/>
<path d="M9.56924 468.437C11.5595 469.16 13.6907 469.412 15.7947 469.171C17.8987 468.93 19.9181 468.204 21.6937 467.05C23.4693 465.896 24.9525 464.345 26.0265 462.52C27.1005 460.695 27.7359 458.645 27.8826 456.533C28.0293 454.42 27.6833 452.302 26.8719 450.346C26.0604 448.39 24.8058 446.649 23.2067 445.26C21.6077 443.872 19.708 442.874 17.6574 442.345C15.6069 441.816 13.4614 441.77 11.3902 442.212L11.7325 449.25L8.40263 443.218C5.13455 444.754 2.60982 447.524 1.38326 450.92C0.947665 452.11 0.682855 453.355 0.596725 454.619C0.386528 457.584 1.14873 460.538 2.76783 463.031C4.38693 465.525 6.77467 467.422 9.56924 468.437Z" stroke="#3F3D56" stroke-miterlimit="10"/>
<path d="M23.8121 429.539C24.5932 427.384 25.9041 425.46 27.6241 423.945C29.3441 422.429 31.4179 421.371 33.6542 420.868L34.7801 427.559L36.8675 420.532C39.7656 420.575 42.5752 421.538 44.8905 423.281C47.2057 425.025 48.9069 427.46 49.7484 430.233C50.5898 433.007 50.5281 435.976 49.572 438.713C48.6159 441.449 46.815 443.811 44.4292 445.457C42.0435 447.103 39.1963 447.948 36.2989 447.87C33.4014 447.793 30.6035 446.796 28.3092 445.025C26.015 443.254 24.343 440.799 23.5346 438.016C22.7263 435.232 22.8235 432.264 23.8121 429.539Z" fill="#57B894"/>
<path d="M24.5621 427.123C25.3432 424.968 26.6541 423.044 28.3741 421.529C30.0941 420.013 32.1679 418.955 34.4042 418.452L35.5301 425.143L37.6175 418.116C40.5157 418.159 43.3252 419.122 45.6404 420.865C47.9557 422.609 49.6569 425.044 50.4984 427.817C51.3398 430.591 51.2781 433.56 50.322 436.297C49.3659 439.033 47.565 441.395 45.1792 443.041C42.7935 444.687 39.9463 445.532 37.0488 445.454C34.1514 445.377 31.3535 444.38 29.0592 442.609C26.765 440.838 25.0929 438.383 24.2846 435.6C23.4763 432.816 23.5735 429.848 24.5621 427.123Z" stroke="#3F3D56" stroke-miterlimit="10"/>
<path d="M34.0556 501.822C37.212 502.967 40.6794 502.91 43.7968 501.663C46.9142 500.416 49.4637 498.065 50.9593 495.059C52.4548 492.052 52.792 488.601 51.9064 485.362C51.0208 482.124 48.9744 479.324 46.1573 477.497L44.5533 482.897L43.416 476.127C43.4048 476.122 43.3931 476.118 43.3812 476.114C41.6929 475.5 39.9001 475.225 38.1054 475.304C36.3106 475.384 34.5491 475.816 32.9214 476.576C31.2938 477.336 29.8319 478.41 28.6194 479.736C27.4068 481.061 26.4674 482.613 25.8548 484.302C25.2421 485.99 24.9683 487.783 25.0489 489.578C25.1296 491.373 25.5631 493.134 26.3247 494.761C27.0863 496.388 28.161 497.849 29.4876 499.061C30.8141 500.272 32.3663 501.21 34.0556 501.822Z" fill="#57B894"/>
<path d="M34.7097 499.374C37.8661 500.519 41.3335 500.463 44.4509 499.215C47.5683 497.968 50.1178 495.617 51.6134 492.611C53.1089 489.605 53.4461 486.154 52.5605 482.915C51.6749 479.676 49.6285 476.877 46.8114 475.05L45.2074 480.45L44.0701 473.68C44.0589 473.675 44.0472 473.67 44.0353 473.667C42.3473 473.054 40.5553 472.781 38.7615 472.861C36.9677 472.941 35.2072 473.374 33.5807 474.134C30.2957 475.671 27.7555 478.449 26.5188 481.858C25.2822 485.267 25.4504 489.027 26.9865 492.312C28.5226 495.597 31.3007 498.138 34.7097 499.374Z" stroke="#3F3D56" stroke-miterlimit="10"/>
<path d="M19.8233 524.53C20.3661 527.618 21.9541 530.426 24.3211 532.482C26.6882 534.538 29.6903 535.718 32.8239 535.824C35.9576 535.929 39.0322 534.954 41.5322 533.062C44.0323 531.169 45.8056 528.475 46.5548 525.43C47.304 522.386 46.9836 519.176 45.6473 516.34C44.3109 513.503 42.04 511.213 39.2152 509.852C36.3904 508.491 33.1837 508.143 30.1327 508.866C27.0818 509.589 24.3722 511.339 22.4583 513.822L28.5507 522.992L20.2263 518.125C19.5808 520.197 19.4426 522.394 19.8233 524.53Z" fill="#57B894"/>
<path d="M20.3858 522.718C20.9286 525.806 22.5166 528.614 24.8836 530.67C27.2507 532.726 30.2528 533.906 33.3864 534.012C36.5201 534.117 39.5947 533.142 42.0948 531.25C44.5948 529.357 46.3681 526.663 47.1173 523.618C47.8665 520.574 47.5461 517.364 46.2098 514.528C44.8734 511.691 42.6025 509.4 39.7777 508.04C36.9529 506.679 33.7462 506.331 30.6952 507.054C27.6443 507.777 24.9347 509.527 23.0208 512.01L29.1132 521.18L20.7888 516.313C20.1433 518.385 20.0051 520.582 20.3858 522.718Z" stroke="#3F3D56" stroke-miterlimit="10"/>
<path d="M480.945 341.116C490.334 341.116 497.945 331.266 497.945 319.116C497.945 306.965 490.334 297.116 480.945 297.116C471.556 297.116 463.945 306.965 463.945 319.116C463.945 331.266 471.556 341.116 480.945 341.116Z" fill="#2F2E41"/>
<path d="M573.445 341.616C582.834 341.616 590.445 331.766 590.445 319.616C590.445 307.465 582.834 297.616 573.445 297.616C564.056 297.616 556.445 307.465 556.445 319.616C556.445 331.766 564.056 341.616 573.445 341.616Z" fill="#2F2E41"/>
<path d="M560.445 384.615C560.445 394.555 546.565 402.615 529.445 402.615C512.325 402.615 498.445 394.555 498.445 384.615C498.445 376.005 508.855 368.805 522.765 367.045C524.98 366.753 527.212 366.61 529.445 366.615C533.188 366.603 536.921 367.006 540.575 367.816C552.195 370.406 560.445 376.955 560.445 384.615Z" fill="#2F2E41"/>
<path d="M484.945 336.116C494.334 336.116 501.945 326.266 501.945 314.116C501.945 301.965 494.334 292.116 484.945 292.116C475.556 292.116 467.945 301.965 467.945 314.116C467.945 326.266 475.556 336.116 484.945 336.116Z" stroke="#3F3D56" stroke-miterlimit="10"/>
<path d="M577.445 336.616C586.834 336.616 594.445 326.766 594.445 314.616C594.445 302.465 586.834 292.616 577.445 292.616C568.056 292.616 560.445 302.465 560.445 314.616C560.445 326.766 568.056 336.616 577.445 336.616Z" stroke="#3F3D56" stroke-miterlimit="10"/>
<path d="M533.445 397.616C550.566 397.616 564.445 389.557 564.445 379.616C564.445 369.675 550.566 361.616 533.445 361.616C516.324 361.616 502.445 369.675 502.445 379.616C502.445 389.557 516.324 397.616 533.445 397.616Z" stroke="#3F3D56" stroke-miterlimit="10"/>
<path d="M540.947 369.316C540.955 370.573 540.483 371.786 539.627 372.707C539.223 373.149 538.732 373.502 538.185 373.744C537.637 373.986 537.046 374.113 536.447 374.115H526.447C525.215 374.073 524.05 373.544 523.207 372.644C522.364 371.745 521.911 370.548 521.947 369.316C521.942 368.341 522.228 367.386 522.767 366.574C524.98 366.263 527.213 366.109 529.447 366.115C533.195 366.103 536.931 366.533 540.577 367.396C540.824 368.005 540.95 368.658 540.947 369.316Z" fill="white"/>
<path d="M484.945 313.116C487.707 313.116 489.945 310.877 489.945 308.116C489.945 305.354 487.707 303.116 484.945 303.116C482.184 303.116 479.945 305.354 479.945 308.116C479.945 310.877 482.184 313.116 484.945 313.116Z" fill="white"/>
<path d="M577.945 313.116C580.707 313.116 582.945 310.877 582.945 308.116C582.945 305.354 580.707 303.116 577.945 303.116C575.184 303.116 572.945 305.354 572.945 308.116C572.945 310.877 575.184 313.116 577.945 313.116Z" fill="white"/>
<path opacity="0.3" d="M582.945 360.116C585.707 360.116 587.945 357.877 587.945 355.116C587.945 352.354 585.707 350.116 582.945 350.116C580.184 350.116 577.945 352.354 577.945 355.116C577.945 357.877 580.184 360.116 582.945 360.116Z" fill="#634C9F"/>
<path opacity="0.3" d="M460.945 360.116C463.707 360.116 465.945 357.877 465.945 355.116C465.945 352.354 463.707 350.116 460.945 350.116C458.184 350.116 455.945 352.354 455.945 355.116C455.945 357.877 458.184 360.116 460.945 360.116Z" fill="#634C9F"/>
</svg>
