<svg width="65" height="66" viewBox="0 0 65 66" fill="none" xmlns="http://www.w3.org/2000/svg">
<g clip-path="url(#clip0_6314_2808)">
<mask id="mask0_6314_2808" style="mask-type:luminance" maskUnits="userSpaceOnUse" x="0" y="0" width="65" height="65">
<path d="M64.2052 0.638916H0.738281V64.1059H64.2052V0.638916Z" fill="white"/>
</mask>
<g mask="url(#mask0_6314_2808)">
<path d="M64.2052 34.3918L54.3968 41.4597L58.147 52.8549L46.0306 52.7106L42.2802 64.1059L32.4718 57.0379L22.6633 64.1059L18.913 52.7106L6.79649 52.8549L10.5468 41.4597L0.738281 34.3918L10.5468 27.4681L6.79649 16.0729H18.913L22.6633 4.6777L32.4718 11.6014L42.2802 4.53345L46.0306 15.9287H58.147L54.3968 27.3238L64.2052 34.3918Z" fill="#634C9F"/>
<path d="M49.0549 20.9772C53.0937 18.525 56.844 15.3517 59.4404 11.6014C60.7386 9.72623 61.8926 7.56259 61.604 5.39894C61.3156 3.37953 59.8731 1.64862 57.8537 1.36013C56.844 1.07164 55.8343 1.21589 54.9689 1.50437C54.1034 1.64862 53.2379 1.9371 52.661 2.36983C50.93 3.52377 50.2089 5.83167 49.6319 7.85107C48.6222 11.6014 47.7567 15.0632 47.1797 18.8136" stroke="#1D1D1B" stroke-width="0.64759" stroke-miterlimit="10" stroke-linecap="round" stroke-linejoin="round"/>
<path d="M44.2989 51.7009L28.5763 50.8354L21.7969 37.1323L40.5485 9.14917L63.0504 23.7178L44.2989 51.7009Z" fill="#FFB709"/>
<path d="M49.0586 20.9772C53.0975 18.525 56.8477 15.3517 59.4442 11.6014C60.7423 9.72623 61.8963 7.56259 61.6077 5.39894C61.3193 3.37953 59.8769 1.64862 57.8575 1.36013C56.8477 1.07164 55.838 1.21589 54.9726 1.50437C54.1072 1.64862 53.2416 1.9371 52.6647 2.36983C50.9338 3.52377 50.2126 5.83167 49.6356 7.85107C49.3471 8.57229 49.2029 9.14926 49.0586 10.0147" stroke="#1D1D1B" stroke-width="0.64759" stroke-miterlimit="10" stroke-linecap="round" stroke-linejoin="round"/>
<path d="M48.9141 30.6414L31.3164 33.382L32.3262 34.536L49.9238 31.7953L48.9141 30.6414Z" fill="#1D1D1B"/>
<path d="M43.2905 35.5459C43.002 35.4016 42.8578 35.4016 42.7136 35.4016C42.1366 35.2574 41.5596 35.2574 40.9826 35.4016C40.4056 35.6901 39.6845 35.9786 39.1075 36.4113C38.5305 36.9883 38.0978 37.5652 37.8093 38.1422C37.5208 38.7192 37.5208 39.2962 37.665 39.8732C37.8093 40.4501 38.0978 41.0271 38.5305 41.4598L38.6748 41.6041C39.3959 42.3253 40.1172 42.6138 40.9826 42.6138C41.8481 42.6138 42.8578 42.1811 43.7233 41.4598C44.5887 40.5944 45.0215 39.7289 45.1657 38.8635C45.3099 37.9979 44.8772 37.1325 44.3002 36.4113C44.0117 35.9786 43.579 35.8344 43.2905 35.5459ZM39.9729 41.3156C39.8287 41.1713 39.5402 41.0271 39.3959 40.8829C38.9632 40.4501 38.819 39.8732 38.9632 39.1519C39.1075 38.5749 39.3959 37.9979 40.1172 37.2768C40.8383 36.6998 41.4153 36.2671 41.9923 36.2671C42.1366 36.2671 42.1366 36.2671 42.2809 36.2671C42.8578 36.2671 43.1463 36.4113 43.579 36.8441C44.0117 37.2768 44.156 37.8538 44.0117 38.5749C43.8675 39.1519 43.4348 39.7289 42.8578 40.3059C42.2809 40.8829 41.5596 41.3156 40.9826 41.3156C40.6942 41.4598 40.2615 41.4598 39.9729 41.3156Z" fill="#1D1D1B"/>
<path d="M36.9424 29.0547C37.6636 29.776 38.3849 30.0644 39.2503 30.0644C39.2503 30.0644 39.2503 30.0644 39.3946 30.0644C40.26 30.0644 41.2697 29.6317 42.1351 28.9104C43.0006 28.045 43.4333 27.1796 43.5776 26.3141C43.7218 25.4487 43.2891 24.5832 42.7121 23.862C42.4237 23.4293 41.9909 23.285 41.7024 23.1407C41.2697 22.8523 40.837 22.8523 40.26 22.8523C39.3946 22.8523 38.3849 23.285 37.5194 24.0063C36.6539 24.8717 36.2212 25.7371 36.077 26.6026C35.7884 27.468 36.077 28.1893 36.9424 29.0547ZM40.4043 23.862C40.837 23.862 41.2697 24.1504 41.8467 24.439C42.2794 24.8717 42.4237 25.4487 42.2794 26.1699C42.1351 26.7469 41.7024 27.3238 41.1254 28.045C40.4043 28.622 39.8273 29.0547 39.2503 29.0547C38.8176 29.199 38.5291 29.0547 38.2406 28.9104C37.9521 28.7663 37.8079 28.622 37.6636 28.4777C37.2309 28.045 37.0867 27.468 37.2309 26.7469C37.3751 26.1699 37.8079 25.5929 38.3849 24.8717C39.106 24.2947 39.683 23.862 40.26 23.862C40.1157 23.862 40.26 23.862 40.4043 23.862Z" fill="#1D1D1B"/>
</g>
</g>
<defs>
<clipPath id="clip0_6314_2808">
<rect width="64.6003" height="64.6003" fill="white" transform="translate(0.171875 0.412354)"/>
</clipPath>
</defs>
</svg>
