<svg width="64" height="65" viewBox="0 0 64 65" fill="none" xmlns="http://www.w3.org/2000/svg">
<mask id="mask0_6314_2856" style="mask-type:luminance" maskUnits="userSpaceOnUse" x="0" y="0" width="64" height="65">
<path d="M63.8732 0.638916H0.40625V64.1059H63.8732V0.638916Z" fill="white"/>
</mask>
<g mask="url(#mask0_6314_2856)">
<mask id="mask1_6314_2856" style="mask-type:luminance" maskUnits="userSpaceOnUse" x="0" y="0" width="64" height="65">
<path d="M63.8732 0.638916H0.40625V64.1059H63.8732V0.638916Z" fill="white"/>
</mask>
<g mask="url(#mask1_6314_2856)">
<path d="M44.0412 26.6208H7.74609V55.776H44.0412V26.6208Z" fill="#634C9F"/>
<path d="M44.2378 34.9507H52.1711L61.0962 52.0074C62.0878 53.7924 60.6995 55.7758 58.9145 55.7758H43.2461" stroke="#1D1D1B" stroke-width="1.70001" stroke-miterlimit="10" stroke-linecap="round" stroke-linejoin="round"/>
<path d="M16.6741 61.924C19.2524 61.924 21.4341 59.7424 21.4341 56.9657C21.4341 54.189 19.2524 52.0073 16.6741 52.0073C14.0957 52.0073 11.9141 54.189 11.9141 56.9657C11.9141 59.7424 14.0957 61.924 16.6741 61.924Z" stroke="#1D1D1B" stroke-width="1.70001" stroke-miterlimit="10" stroke-linecap="round" stroke-linejoin="round"/>
<path d="M51.5764 61.924C54.1548 61.924 56.3365 59.7424 56.3365 56.9657C56.3365 54.189 54.1548 52.0073 51.5764 52.0073C48.9981 52.0073 46.8164 54.189 46.8164 56.9657C46.8164 59.7424 48.9981 61.924 51.5764 61.924Z" stroke="#1D1D1B" stroke-width="1.70001" stroke-miterlimit="10" stroke-linecap="round" stroke-linejoin="round"/>
<path d="M5.76172 50.0242H20.6368" stroke="#1D1D1B" stroke-width="1.70001" stroke-miterlimit="10" stroke-linecap="round" stroke-linejoin="round"/>
<path d="M2.78906 45.4624H17.6641" stroke="#1D1D1B" stroke-width="1.70001" stroke-miterlimit="10" stroke-linecap="round" stroke-linejoin="round"/>
<path d="M46.6181 31.9758C54.7498 31.9758 61.2949 25.4307 61.2949 17.299C61.2949 9.16734 54.7498 2.62231 46.6181 2.62231C38.4864 2.62231 31.9414 9.16734 31.9414 17.299C31.9414 25.2324 38.4864 31.9758 46.6181 31.9758Z" fill="#FFB709"/>
<path d="M40.2734 14.7207L46.0251 25.8274L54.1568 10.5557" stroke="#1D1D1B" stroke-width="1.70001" stroke-miterlimit="10" stroke-linecap="round" stroke-linejoin="round"/>
</g>
</g>
</svg>
