<svg width="64" height="66" viewBox="0 0 64 66" fill="none" xmlns="http://www.w3.org/2000/svg">
<path d="M38.8807 44.4707C46.8141 44.4707 53.3591 37.9257 53.3591 29.9923C53.3591 22.0589 46.8141 15.5139 38.8807 15.5139C30.9474 15.5139 24.4023 22.0589 24.4023 29.9923C24.4023 37.9257 30.749 44.4707 38.8807 44.4707Z" fill="#FFB709"/>
<path d="M29.1592 24.4391C30.1509 23.2491 30.5475 21.8607 30.5475 20.274C30.5475 17.1007 28.3659 14.324 25.3909 13.729C25.5892 12.9357 25.7875 12.1423 25.7875 11.349C25.7875 6.589 21.8208 2.62231 16.8625 2.62231C12.1025 2.62231 8.13579 6.589 8.13579 11.349C8.13579 12.1423 8.33413 12.7373 8.33413 13.5307C5.55745 14.324 3.37577 17.1007 3.37577 20.274C3.37577 21.8607 3.97077 23.2491 4.76411 24.4391C3.17744 26.0257 1.59076 28.2074 1.98743 30.7858C2.3841 33.1658 12.4991 57.3626 12.4991 57.3626H21.2258C21.2258 57.3626 31.3409 33.1658 31.7376 30.7858C32.3326 28.2074 30.7459 26.0257 29.1592 24.4391Z" fill="#634C9F"/>
<path d="M16.8633 12.5391V56.7676" stroke="#1D1D1B" stroke-width="1.70001" stroke-miterlimit="10" stroke-linecap="round" stroke-linejoin="round"/>
<path d="M9.32812 31.7776L16.8648 40.306" stroke="#1D1D1B" stroke-width="1.70001" stroke-miterlimit="10" stroke-linecap="round" stroke-linejoin="round"/>
<path d="M24.5983 31.7776L16.8633 40.306" stroke="#1D1D1B" stroke-width="1.70001" stroke-miterlimit="10" stroke-linecap="round" stroke-linejoin="round"/>
<path d="M9.32812 19.2825L17.0631 28.0092" stroke="#1D1D1B" stroke-width="1.70001" stroke-miterlimit="10" stroke-linecap="round" stroke-linejoin="round"/>
<path d="M24.5983 19.2825L16.8633 28.0092" stroke="#1D1D1B" stroke-width="1.70001" stroke-miterlimit="10" stroke-linecap="round" stroke-linejoin="round"/>
<path d="M47.999 43.6775C48.3956 45.0659 48.594 46.4542 48.7923 47.6442H61.4857L56.329 31.9758L46.0156 39.7109C46.809 40.9009 47.404 42.2892 47.999 43.6775Z" fill="#634C9F"/>
<path d="M2.78389 58.5527C1.99055 56.371 2.78389 53.991 4.37056 52.9993L33.9224 35.5459C39.0791 32.9675 45.6241 36.7359 48.0041 43.6776C50.1858 50.6193 47.2108 57.561 41.4591 58.5527L7.34558 62.1227C5.56058 62.321 3.57722 60.7343 2.78389 58.5527Z" stroke="#1D1D1B" stroke-width="1.70001" stroke-miterlimit="10" stroke-linecap="round" stroke-linejoin="round"/>
<path d="M33.5234 35.9424C33.7218 36.3391 37.8868 50.0241 37.8868 50.0241" stroke="#1D1D1B" stroke-width="1.70001" stroke-miterlimit="10" stroke-linecap="round" stroke-linejoin="round"/>
<path d="M28.7617 51.6108C28.9601 52.0075 31.3401 59.5442 31.3401 59.5442" stroke="#1D1D1B" stroke-width="1.70001" stroke-miterlimit="10" stroke-linecap="round" stroke-linejoin="round"/>
<path d="M20.2344 44.0742C20.4327 44.4709 22.8127 52.0076 22.8127 52.0076" stroke="#1D1D1B" stroke-width="1.70001" stroke-miterlimit="10" stroke-linecap="round" stroke-linejoin="round"/>
<path d="M8.92969 55.7759L10.7147 61.5276" stroke="#1D1D1B" stroke-width="1.70001" stroke-miterlimit="10" stroke-linecap="round" stroke-linejoin="round"/>
<path d="M44.0354 9.76245L41.457 19.4808" stroke="#1D1D1B" stroke-width="1.70001" stroke-miterlimit="10" stroke-linecap="round" stroke-linejoin="round"/>
<path d="M45.2256 19.2825C44.6306 19.6791 43.8373 19.6791 43.0439 19.6791C41.4573 19.6791 39.8706 18.8858 38.8789 17.6958" stroke="#1D1D1B" stroke-width="1.70001" stroke-miterlimit="10" stroke-linecap="round" stroke-linejoin="round"/>
</svg>
