<svg width="52" height="45" viewBox="0 0 52 45" fill="none" xmlns="http://www.w3.org/2000/svg">
<path d="M26.2762 44.2451C36.2642 44.2451 44.3611 36.1483 44.3611 26.1603V13.0057C44.3611 9.0261 41.135 5.80005 37.1554 5.80005H15.3971C11.4175 5.80005 8.19141 9.0261 8.19141 13.0057V26.1603C8.19141 36.1483 16.2883 44.2451 26.2762 44.2451Z" fill="#634C9F"/>
<path d="M17.9665 27.1642C18.3432 28.8597 19.4736 31.1203 20.7924 31.497C28.3671 34.0795 36.4139 33.9876 44.3577 34.0963V13.0057C44.3577 9.02604 41.1317 5.8 37.1521 5.8H15.3938C13.2444 5.8 11.3162 6.74215 9.99609 8.2346C16.234 12.0309 16.0173 20.4304 17.9665 27.1642Z" fill="#FACC15"/>
<path d="M42.6377 35.1448C42.4931 35.1448 42.3474 35.1389 42.201 35.1271L23.6435 33.6122C20.7971 33.3797 18.394 31.3686 17.6636 28.6079L14.0456 14.9328C13.4042 12.5012 12.7406 9.98709 9.90589 9.22542L1.83643 7.56642C1.2251 7.44076 0.831166 6.84318 0.957013 6.23166C1.08267 5.62013 1.6812 5.22639 2.29178 5.35205L10.4528 7.03157C14.5861 8.11936 15.5372 11.7241 16.2316 14.3561L16.2779 14.5321L19.8491 28.0297C20.335 29.8664 21.9337 31.2041 23.8274 31.359L42.3851 32.8739C43.8606 32.9945 45.2165 32.0461 45.61 30.6196L49.0288 18.2269L25.3319 16.2802C24.8193 16.2386 24.3357 16.4388 24.0037 16.8309C23.6718 17.2231 23.5537 17.7335 23.6797 18.2316L24.7374 22.4145C25.087 23.7969 26.275 24.8218 27.694 24.9647L38.8659 26.0906C39.4364 26.148 39.9575 25.8084 40.1364 25.2652C40.2521 24.9133 40.2022 24.5337 39.9991 24.2238C39.7958 23.9139 39.4676 23.7164 39.0986 23.6824L29.7166 22.8146C29.0951 22.7572 28.6378 22.2067 28.6953 21.585C28.7528 20.9635 29.3002 20.5059 29.925 20.5635L39.3069 21.4312C40.3655 21.5292 41.3069 22.0953 41.8898 22.9845C42.4725 23.8736 42.6161 24.9629 42.2836 25.9725C41.7702 27.531 40.2696 28.5047 38.6393 28.3398L27.4674 27.214C25.1055 26.976 23.1275 25.2699 22.5456 22.9687L21.4879 18.7858C21.1807 17.5712 21.4689 16.3263 22.2784 15.3702C23.088 14.414 24.2683 13.9251 25.5169 14.027L51.9338 16.1971L47.7894 31.2207C47.1464 33.551 45.0205 35.1446 42.6377 35.1448Z" fill="#634C9F"/>
<path d="M26.291 37.9294C26.291 39.6289 24.9132 41.0066 23.2138 41.0066C21.5144 41.0066 20.1367 39.6289 20.1367 37.9294C20.1367 36.2299 21.5144 34.8523 23.2138 34.8523C24.9132 34.8523 26.291 36.2299 26.291 37.9294Z" fill="#DC2626"/>
<path d="M41.5853 38.8647C41.5853 39.8917 40.753 40.724 39.7263 40.724C38.6995 40.724 37.8672 39.8917 37.8672 38.8647C37.8672 37.838 38.6995 37.0057 39.7263 37.0057C40.753 37.0057 41.5853 37.838 41.5853 38.8647Z" fill="#DC2626"/>
<path d="M23.0569 10.5856C23.0569 12.077 21.848 13.2859 20.3567 13.2859C18.8654 13.2859 17.6562 12.077 17.6562 10.5856C17.6562 9.09432 18.8654 7.88521 20.3567 7.88521C21.848 7.88521 23.0569 9.09432 23.0569 10.5856Z" fill="#F25321"/>
<path d="M28.0659 4.11733C28.0659 6.13333 26.4317 7.76746 24.4157 7.76746C22.3999 7.76746 20.7656 6.13333 20.7656 4.11733C20.7656 2.10152 22.3999 0.467211 24.4157 0.467211C26.4317 0.467211 28.0659 2.10152 28.0659 4.11733Z" fill="#634C9F"/>
<path d="M27.1789 9.68547C27.1789 10.3906 26.6073 10.9624 25.9019 10.9624C25.1968 10.9624 24.625 10.3906 24.625 9.68547C24.625 8.98031 25.1968 8.40854 25.9019 8.40854C26.6073 8.40854 27.1789 8.98031 27.1789 9.68547Z" fill="#634C9F"/>
<path d="M35.1021 5.97002C35.1021 7.6 33.7806 8.92139 32.1506 8.92139C30.5204 8.92139 29.1992 7.6 29.1992 5.97002C29.1992 4.33985 30.5204 3.01846 32.1506 3.01846C33.7806 3.01846 35.1021 4.33985 35.1021 5.97002Z" fill="#F25321"/>
<path d="M37.9368 11.5118C37.9368 12.8385 36.8613 13.9138 35.5348 13.9138C34.2082 13.9138 33.1328 12.8385 33.1328 11.5118C33.1328 10.1853 34.2082 9.10979 35.5348 9.10979C36.8613 9.10979 37.9368 10.1853 37.9368 11.5118Z" fill="#F25321"/>
<path d="M48.1322 12.5638C48.1322 13.8905 47.0566 14.9658 45.7301 14.9658C44.4035 14.9658 43.3281 13.8905 43.3281 12.5638C43.3281 11.2373 44.4035 10.1618 45.7301 10.1618C47.0566 10.1618 48.1322 11.2373 48.1322 12.5638Z" fill="#634C9F"/>
<path d="M31.4332 11.9356C31.4332 12.8202 30.7163 13.537 29.8318 13.537C28.9475 13.537 28.2305 12.8202 28.2305 11.9356C28.2305 11.0513 28.9475 10.3343 29.8318 10.3343C30.7163 10.3343 31.4332 11.0513 31.4332 11.9356Z" fill="#634C9F"/>
<path d="M41.1364 6.12688C41.1364 7.23671 40.2366 8.13647 39.1268 8.13647C38.0171 8.13647 37.1172 7.23671 37.1172 6.12688C37.1172 5.01706 38.0171 4.11729 39.1268 4.11729C40.2366 4.11729 41.1364 5.01706 41.1364 6.12688Z" fill="#634C9F"/>
<path d="M41.9839 12.5637C41.9839 13.448 41.2671 14.165 40.3826 14.165C39.4983 14.165 38.7812 13.448 38.7812 12.5637C38.7812 11.6794 39.4983 10.9624 40.3826 10.9624C41.2671 10.9624 41.9839 11.6794 41.9839 12.5637Z" fill="#634C9F"/>
<path d="M43.8409 8.92139C43.8409 9.66705 43.2363 10.2716 42.4907 10.2716C41.745 10.2716 41.1406 9.66705 41.1406 8.92139C41.1406 8.17573 41.745 7.57136 42.4907 7.57136C43.2363 7.57136 43.8409 8.17573 43.8409 8.92139Z" fill="#F25321"/>
</svg>
